<?xml version="1.0" standalone="no"?>
   <!DOCTYPE svg PUBLIC "-//W3C//DTD SVG 1.1//EN" 
   "http://www.w3.org/Graphics/SVG/1.1/DTD/svg11.dtd"><svg id="svg" version="1.1" width="438" height="570" xmlns="http://www.w3.org/2000/svg"><path d="M138.727 49.316 C 127.169 54.536,121.847 66.209,124.204 81.168 C 125.779 91.164,125.236 92.071,115.591 95.559 C 100.372 101.062,90.000 114.869,90.000 129.626 C 90.000 144.919,99.803 154.810,134.113 174.134 C 156.880 186.957,158.064 188.117,154.020 193.634 C 151.655 196.860,150.087 203.034,150.536 207.353 C 151.202 213.756,145.920 220.679,121.928 244.853 C 73.884 293.261,49.998 328.518,40.475 365.080 C 35.164 385.469,34.863 438.178,39.978 452.052 C 51.278 482.702,81.144 504.983,116.071 508.820 C 125.657 509.873,141.600 513.424,151.500 516.711 C 166.260 521.611,174.360 522.380,196.500 520.985 C 211.350 520.049,231.978 517.063,242.341 514.349 C 255.635 510.868,262.295 510.340,264.963 512.555 C 267.043 514.281,275.178 517.135,283.039 518.897 C 300.081 522.716,322.675 517.869,342.751 506.087 C 362.783 494.331,391.819 462.272,396.469 446.778 C 402.553 426.501,401.213 392.020,393.328 366.000 C 379.716 321.078,359.182 294.059,297.458 239.856 C 276.201 221.189,275.547 220.214,279.089 212.471 C 284.047 201.633,280.813 190.789,271.336 186.471 C 267.042 184.515,264.003 181.491,264.583 179.751 C 265.163 178.012,275.056 172.627,286.569 167.784 C 298.081 162.942,309.188 156.702,311.250 153.917 C 315.261 148.501,316.188 135.587,313.136 127.634 C 310.951 121.938,296.726 114.000,288.705 114.000 C 285.250 114.000,281.168 109.924,278.028 103.341 C 272.682 92.130,254.225 81.194,240.432 81.066 C 236.544 81.030,228.223 76.928,221.939 71.952 C 194.886 50.526,158.167 40.537,138.727 49.316 M192.340 59.224 C 199.578 62.451,211.365 70.020,218.534 76.045 C 227.488 83.571,234.531 87.004,241.034 87.011 C 252.223 87.024,268.215 96.059,273.053 105.100 C 275.959 110.529,274.551 115.452,263.940 136.972 C 257.037 150.970,249.839 162.897,247.945 163.478 C 246.050 164.058,239.411 165.379,233.191 166.413 L 221.882 168.294 223.384 155.397 C 224.643 144.581,224.482 144.021,222.388 151.927 C 216.976 172.353,214.861 173.258,212.876 156.000 L 210.978 139.500 210.489 156.409 L 210.000 173.319 195.962 175.424 C 180.247 177.780,179.840 177.470,160.714 148.500 C 129.192 100.754,120.522 63.758,138.685 54.502 C 148.140 49.684,176.550 52.184,192.340 59.224 M137.759 117.419 C 143.401 129.117,155.166 147.823,163.903 158.990 L 179.789 179.292 170.566 181.137 C 154.313 184.387,102.243 152.921,95.791 135.949 C 91.869 125.635,99.382 109.507,111.569 102.077 C 117.031 98.747,122.850 96.052,124.500 96.087 C 126.150 96.123,132.116 105.722,137.759 117.419 M296.036 119.959 C 308.008 120.098,313.740 145.042,303.750 153.532 C 300.863 155.986,291.437 160.947,282.805 164.556 C 269.954 169.930,266.058 170.463,261.306 167.495 C 255.714 164.003,255.939 162.999,267.436 140.133 C 277.885 119.351,280.187 116.616,285.935 118.158 C 289.546 119.126,294.091 119.937,296.036 119.959 M225.237 130.750 C 225.381 134.245,226.092 134.956,227.049 132.563 C 227.916 130.397,227.809 127.809,226.813 126.813 C 225.816 125.816,225.107 127.588,225.237 130.750 M260.514 176.672 C 261.360 182.654,260.613 183.445,256.014 181.437 C 252.981 180.112,245.438 178.431,239.250 177.699 C 219.445 175.359,227.640 168.072,249.000 169.029 C 257.624 169.416,259.681 170.781,260.514 176.672 M261.785 188.364 C 277.485 195.321,281.079 200.511,276.334 209.377 C 273.272 215.097,272.875 215.064,257.785 207.842 C 236.101 197.465,197.070 196.764,175.869 206.370 C 157.080 214.884,156.000 214.759,156.000 204.069 C 156.000 187.043,175.940 179.785,219.000 181.138 C 239.994 181.798,251.262 183.701,261.785 188.364 M223.146 216.739 C 226.390 222.920,233.004 232.370,237.844 237.739 L 246.643 247.500 239.266 237.000 C 229.393 222.947,221.211 206.789,223.041 204.959 C 223.857 204.143,232.137 205.056,241.442 206.988 C 256.279 210.068,261.750 213.514,285.920 235.000 C 327.924 272.341,354.503 299.757,366.703 318.326 C 388.989 352.246,401.513 409.548,393.289 439.972 C 381.985 481.795,323.422 522.318,284.968 514.924 C 272.687 512.563,263.858 507.225,268.825 505.163 C 270.653 504.405,274.703 501.742,277.825 499.247 C 282.934 495.162,282.602 495.137,274.500 498.994 C 256.395 507.612,214.952 516.000,190.473 516.000 C 155.061 516.000,138.811 510.206,116.577 489.654 C 97.945 472.430,96.409 476.947,114.684 495.223 L 124.445 504.984 111.221 503.210 C 89.884 500.348,66.443 486.538,55.228 470.223 C 41.304 449.966,37.609 429.148,41.732 394.185 C 45.700 360.538,53.525 338.178,70.491 312.000 C 84.743 290.011,126.289 244.666,147.689 227.743 C 160.802 217.373,190.525 204.525,193.807 207.807 C 195.796 209.796,189.493 223.629,177.772 243.000 C 169.694 256.349,169.260 257.781,175.494 250.500 C 179.732 245.550,187.312 232.983,192.338 222.574 C 200.463 205.744,202.348 203.750,209.361 204.574 C 214.955 205.231,218.962 208.767,223.146 216.739 M204.632 271.614 C 202.504 274.026,197.779 276.022,194.132 276.049 C 184.803 276.119,165.238 287.918,157.782 297.970 C 153.243 304.090,151.500 310.896,151.500 322.500 C 151.500 342.479,156.524 349.791,185.509 372.000 L 207.044 388.500 206.639 422.250 C 206.266 453.294,205.776 456.000,200.521 456.000 C 182.852 456.000,163.897 439.236,160.100 420.252 C 156.766 403.582,153.000 410.547,153.000 433.384 L 153.000 455.769 164.250 458.645 C 170.438 460.227,182.588 462.431,191.250 463.542 C 205.326 465.348,207.000 466.330,207.000 472.782 C 207.000 477.198,208.747 480.000,211.500 480.000 C 214.265 480.000,216.000 477.190,216.000 472.713 C 216.000 466.499,218.331 464.748,231.833 460.823 C 256.638 453.612,270.000 436.059,270.000 410.685 C 270.000 391.931,260.641 377.525,237.135 360.100 L 216.000 344.432 216.000 313.216 C 216.000 278.402,216.888 277.216,234.306 288.750 C 240.374 292.768,247.536 301.821,252.000 311.114 C 256.125 319.701,260.513 326.789,261.750 326.864 C 262.988 326.939,264.000 318.272,264.000 307.606 C 264.000 285.424,263.515 284.921,234.995 277.498 C 225.373 274.993,217.050 271.606,216.500 269.972 C 215.061 265.695,209.129 266.516,204.632 271.614 M207.000 309.000 C 207.000 326.895,205.869 336.000,203.647 336.000 C 197.617 336.000,177.000 312.883,177.000 306.122 C 177.000 297.780,192.550 282.000,200.769 282.000 C 206.615 282.000,207.000 283.667,207.000 309.000 M230.689 406.604 C 243.114 420.756,243.674 437.882,232.062 448.643 C 217.860 461.805,216.000 459.183,216.000 426.000 C 216.000 409.500,217.210 396.000,218.689 396.000 C 220.168 396.000,225.568 400.772,230.689 406.604 " stroke="none" fill="black" fill-rule="evenodd"/></svg>